<svg width="213" height="58" viewBox="0 0 213 58" fill="none" xmlns="http://www.w3.org/2000/svg">
<path fill-rule="evenodd" clip-rule="evenodd" d="M102.56 28.8955C102.56 12.9369 115.497 0 131.455 0C147.414 0 160.351 12.9369 160.351 28.8955C160.351 44.854 147.414 57.7908 131.455 57.7908C115.497 57.7908 102.56 44.854 102.56 28.8955Z" fill="url(#paint0_linear_68_428)"/>
<path d="M106.592 28.8954C106.592 15.1637 117.724 4.03189 131.456 4.03189C145.187 4.03189 156.319 15.1637 156.319 28.8954C156.319 42.6272 145.187 53.759 131.456 53.759C117.724 53.759 106.592 42.6272 106.592 28.8954Z" stroke="white" stroke-opacity="0.2" stroke-width="0.990599"/>
<path d="M114.656 28.8954C114.656 19.6171 122.177 12.0957 131.455 12.0957C140.734 12.0957 148.255 19.6171 148.255 28.8954C148.255 38.1736 140.734 45.695 131.455 45.695C122.177 45.695 114.656 38.1736 114.656 28.8954Z" stroke="white" stroke-opacity="0.498039" stroke-width="0.990599"/>
<path d="M121.376 28.8957C121.376 23.3287 125.889 18.8159 131.456 18.8159C137.023 18.8159 141.536 23.3287 141.536 28.8957C141.536 34.4626 137.023 38.9755 131.456 38.9755C125.889 38.9755 121.376 34.4626 121.376 28.8957Z" stroke="white" stroke-opacity="0.74902" stroke-width="0.990599"/>
<path fill-rule="evenodd" clip-rule="evenodd" d="M127.639 28.8959C127.639 26.7881 129.348 25.0794 131.455 25.0794C133.563 25.0794 135.272 26.7881 135.272 28.8959C135.272 31.0037 133.563 32.7125 131.455 32.7125C129.348 32.7125 127.639 31.0037 127.639 28.8959Z" fill="white"/>
<path d="M29.7622 14.0899C30.9822 15.1173 31.6656 16.5483 31.8124 18.3829H46.4529C46.4345 14.6953 45.5217 11.471 43.7146 8.70988C41.9074 5.94877 39.3435 3.80683 36.0229 2.28408C32.7022 0.761361 28.7669 0 24.2171 0C19.7589 0 15.8099 0.752195 12.3699 2.25659C8.93003 3.76098 6.2423 5.85704 4.30678 8.54478C2.37125 11.2325 1.41266 14.3651 1.43101 17.9426C1.41266 22.3457 2.83909 25.8177 5.71029 28.3586C8.58147 30.8995 12.5122 32.7113 17.5023 33.7939L23.1163 35.0047C26.2535 35.6834 28.4459 36.4493 29.6934 37.3024C30.941 38.1554 31.5739 39.2241 31.5923 40.5084C31.5739 41.9027 30.9364 43.0402 29.6796 43.9209C28.4229 44.8015 26.5654 45.2418 24.107 45.2418C21.1716 45.2418 18.8737 44.5676 17.2134 43.2191C15.553 41.8706 14.6587 39.9029 14.5302 37.3161H0C0.0183469 42.0311 1.03198 45.8976 3.0409 48.9155C5.04981 51.9335 7.87513 54.1672 11.5169 55.6166C15.1586 57.0661 19.4287 57.7908 24.3271 57.7908C31.4638 57.7908 37.0594 56.3002 41.114 53.319C45.1686 50.3377 47.205 46.0675 47.2231 40.5084C47.2047 36.2153 45.8197 32.5966 43.0679 29.652C40.3158 26.7075 35.8302 24.5656 29.6108 23.2263L24.9876 22.2358C22.3274 21.6669 20.3781 20.9606 19.1397 20.1167C17.9014 19.2727 17.3189 18.1811 17.3923 16.8419C17.4106 15.5943 17.961 14.5669 19.0434 13.7597C20.1258 12.9524 21.8504 12.5488 24.2171 12.5488C26.6938 12.5488 28.5422 13.0625 29.7622 14.0899ZM53.0572 0.77054V57.1304H68.3583V40.3986H76.8343C81.1273 40.3986 84.8836 39.6004 88.1032 38.0041C91.3231 36.4081 93.8275 34.1332 95.6163 31.1795C97.4048 28.2258 98.2991 24.7308 98.2991 20.6946C98.2991 16.6951 97.4276 13.2001 95.6847 10.2097C93.9418 7.21924 91.5019 4.89845 88.3648 3.2473C85.2275 1.59613 81.5675 0.77054 77.3846 0.77054H53.0572ZM73.7518 28.5101H68.3583V12.9892H73.7518C76.4304 12.9892 78.5311 13.668 80.054 15.0256C81.5766 16.3832 82.338 18.2729 82.338 20.6946C82.338 23.098 81.5766 25.0014 80.054 26.4047C78.5311 27.8083 76.4304 28.5101 73.7518 28.5101Z" fill="#77156E"/>
<path d="M164.016 13.0995V0.770813H213V13.0995H196.048V57.1306H180.967V13.0995H164.016Z" fill="#77156E"/>
<defs>
<linearGradient id="paint0_linear_68_428" x1="107.003" y1="9.20267" x2="150.631" y2="49.6571" gradientUnits="userSpaceOnUse">
<stop stop-color="#FF005D"/>
<stop offset="1" stop-color="#77156E"/>
</linearGradient>
</defs>
</svg>
